<?xml version="1.0" standalone="no"?>
<!DOCTYPE svg PUBLIC "-//W3C//DTD SVG 20010904//EN"
 "http://www.w3.org/TR/2001/REC-SVG-20010904/DTD/svg10.dtd">
<svg version="1.0" xmlns="http://www.w3.org/2000/svg"
 width="512.000000pt" height="512.000000pt" viewBox="0 0 512.000000 512.000000"
 preserveAspectRatio="xMidYMid meet">
<metadata>
Created by potrace 1.11, written by Peter Selinger 2001-2013
</metadata>
<g transform="translate(0.000000,512.000000) scale(0.100000,-0.100000)"
fill="#000000" stroke="none">
<path d="M2457 4264 c-1 -1 -33 -4 -72 -8 -79 -7 -103 -10 -160 -21 -22 -4
-47 -9 -55 -10 -81 -14 -258 -76 -356 -124 -101 -49 -233 -135 -303 -196 -178
-156 -319 -355 -410 -582 -58 -142 -93 -277 -127 -483 -12 -73 -11 -447 1
-552 47 -390 200 -736 434 -976 42 -43 99 -96 126 -118 28 -21 52 -41 55 -44
13 -14 143 -92 205 -124 127 -64 353 -136 479 -150 25 -4 67 -9 94 -12 74 -10
320 -11 397 -3 125 14 176 22 250 40 22 5 51 12 64 15 53 11 180 60 263 101
132 64 232 136 333 237 107 108 118 121 171 206 113 179 181 385 201 603 l6
67 -431 0 -430 0 -16 -73 c-49 -220 -193 -386 -389 -449 -58 -18 -95 -23 -187
-23 -134 0 -168 6 -253 41 -247 104 -382 322 -446 719 -10 60 -8 418 2 465 3
14 8 43 12 65 10 69 47 198 76 262 117 262 333 413 593 414 307 2 526 -180
596 -494 l13 -56 430 0 429 1 -6 76 c-7 85 -12 117 -28 177 -5 22 -11 47 -13
55 -8 40 -50 152 -82 217 -150 311 -417 537 -771 652 -84 28 -215 59 -272 66
-14 2 -50 6 -80 10 -49 7 -337 14 -343 9z"/>
</g>
</svg>
